{
    "asset" : {
        "generator" : "Khronos glTF Blender I/O v1.5.17",
        "version" : "2.0"
    },
    "scene" : 0,
    "scenes" : [
        {
            "name" : "Scene",
            "nodes" : [
                0
            ]
        }
    ],
    "nodes" : [
        {
            "mesh" : 0,
            "name" : "Text",
            "rotation" : [
                0.7071068286895752,
                0,
                0,
                0.7071068286895752
            ],
            "scale" : [
                1.1471529006958008,
                1.1471529006958008,
                1.1471529006958008
            ],
            "translation" : [
                -0.9352248907089233,
                0.4539394974708557,
                0.05138608440756798
            ]
        }
    ],
    "materials" : [
        {
            "doubleSided" : true,
            "name" : "Material.001",
            "pbrMetallicRoughness" : {
                "baseColorFactor" : [
                    0.020413298159837723,
                    0.020413298159837723,
                    0.020413298159837723,
                    1
                ],
                "metallicRoughnessTexture" : {
                    "index" : 0
                }
            }
        },
        {
            "doubleSided" : true,
            "name" : "Material",
            "pbrMetallicRoughness" : {
                "baseColorTexture" : {
                    "index" : 1
                },
                "metallicFactor" : 0,
                "roughnessFactor" : 0.4000000059604645
            }
        }
    ],
    "meshes" : [
        {
            "name" : "Text",
            "primitives" : [
                {
                    "attributes" : {
                        "POSITION" : 0,
                        "NORMAL" : 1,
                        "TEXCOORD_0" : 2
                    },
                    "indices" : 3,
                    "material" : 0
                },
                {
                    "attributes" : {
                        "POSITION" : 4,
                        "NORMAL" : 5,
                        "TEXCOORD_0" : 6
                    },
                    "indices" : 7,
                    "material" : 1
                }
            ]
        }
    ],
    "textures" : [
        {
            "sampler" : 0,
            "source" : 0
        },
        {
            "sampler" : 0,
            "source" : 1
        }
    ],
    "images" : [
        {
            "bufferView" : 4,
            "mimeType" : "image/png",
            "name" : "Untitled-Untitled"
        },
        {
            "bufferView" : 9,
            "mimeType" : "image/jpeg",
            "name" : "stone-texture-i"
        }
    ],
    "accessors" : [
        {
            "bufferView" : 0,
            "componentType" : 5126,
            "count" : 14847,
            "max" : [
                1.5554001331329346,
                0.0299999862909317,
                0.9345957636833191
            ],
            "min" : [
                0,
                -0.0299999862909317,
                -0.24010002613067627
            ],
            "type" : "VEC3"
        },
        {
            "bufferView" : 1,
            "componentType" : 5126,
            "count" : 14847,
            "type" : "VEC3"
        },
        {
            "bufferView" : 2,
            "componentType" : 5126,
            "count" : 14847,
            "type" : "VEC2"
        },
        {
            "bufferView" : 3,
            "componentType" : 5123,
            "count" : 23433,
            "type" : "SCALAR"
        },
        {
            "bufferView" : 5,
            "componentType" : 5126,
            "count" : 20,
            "max" : [
                1.6869808435440063,
                -0.009854361414909363,
                1.2674330472946167
            ],
            "min" : [
                -0.056465983390808105,
                -0.07973450422286987,
                -0.47601374983787537
            ],
            "type" : "VEC3"
        },
        {
            "bufferView" : 6,
            "componentType" : 5126,
            "count" : 20,
            "type" : "VEC3"
        },
        {
            "bufferView" : 7,
            "componentType" : 5126,
            "count" : 20,
            "type" : "VEC2"
        },
        {
            "bufferView" : 8,
            "componentType" : 5123,
            "count" : 30,
            "type" : "SCALAR"
        }
    ],
    "bufferViews" : [
        {
            "buffer" : 0,
            "byteLength" : 178164,
            "byteOffset" : 0
        },
        {
            "buffer" : 0,
            "byteLength" : 178164,
            "byteOffset" : 178164
        },
        {
            "buffer" : 0,
            "byteLength" : 118776,
            "byteOffset" : 356328
        },
        {
            "buffer" : 0,
            "byteLength" : 46866,
            "byteOffset" : 475104
        },
        {
            "buffer" : 0,
            "byteLength" : 15798,
            "byteOffset" : 521972
        },
        {
            "buffer" : 0,
            "byteLength" : 240,
            "byteOffset" : 537772
        },
        {
            "buffer" : 0,
            "byteLength" : 240,
            "byteOffset" : 538012
        },
        {
            "buffer" : 0,
            "byteLength" : 160,
            "byteOffset" : 538252
        },
        {
            "buffer" : 0,
            "byteLength" : 60,
            "byteOffset" : 538412
        },
        {
            "buffer" : 0,
            "byteLength" : 1036583,
            "byteOffset" : 538472
        }
    ],
    "samplers" : [
        {
            "magFilter" : 9729,
            "minFilter" : 9987
        }
    ],
    "buffers" : [
        {
            "byteLength" : 1575056,
            "uri" : "data:application/octet-stream;base64,"
        }
    ]
}
