{
    "asset" : {
        "generator" : "Khronos glTF Blender I/O v1.5.17",
        "version" : "2.0"
    },
    "scene" : 0,
    "scenes" : [
        {
            "name" : "Scene",
            "nodes" : [
                0
            ]
        }
    ],
    "nodes" : [
        {
            "mesh" : 0,
            "name" : "Text",
            "rotation" : [
                0.7071068286895752,
                0,
                0,
                0.7071068286895752
            ],
            "translation" : [
                0.544762134552002,
                0.23111072182655334,
                -0.0999988317489624
            ]
        }
    ],
    "materials" : [
        {
            "name" : "Material.001",
            "pbrMetallicRoughness" : {
                "baseColorFactor" : [
                    0.800000011920929,
                    0.800000011920929,
                    0.800000011920929,
                    1
                ],
                "metallicFactor" : 0,
                "roughnessFactor" : 0.5
            }
        }
    ],
    "meshes" : [
        {
            "name" : "Text",
            "primitives" : [
                {
                    "attributes" : {
                        "POSITION" : 0,
                        "NORMAL" : 1,
                        "TEXCOORD_0" : 2
                    },
                    "indices" : 3,
                    "material" : 0
                }
            ]
        }
    ],
    "accessors" : [
        {
            "bufferView" : 0,
            "componentType" : 5126,
            "count" : 6196,
            "max" : [
                2.952238082885742,
                0.099998839199543,
                0.24011072516441345
            ],
            "min" : [
                -3.971762180328369,
                -0.10000116378068924,
                -0.45088931918144226
            ],
            "type" : "VEC3"
        },
        {
            "bufferView" : 1,
            "componentType" : 5126,
            "count" : 6196,
            "type" : "VEC3"
        },
        {
            "bufferView" : 2,
            "componentType" : 5126,
            "count" : 6196,
            "type" : "VEC2"
        },
        {
            "bufferView" : 3,
            "componentType" : 5123,
            "count" : 9057,
            "type" : "SCALAR"
        }
    ],
    "bufferViews" : [
        {
            "buffer" : 0,
            "byteLength" : 74352,
            "byteOffset" : 0
        },
        {
            "buffer" : 0,
            "byteLength" : 74352,
            "byteOffset" : 74352
        },
        {
            "buffer" : 0,
            "byteLength" : 49568,
            "byteOffset" : 148704
        },
        {
            "buffer" : 0,
            "byteLength" : 18114,
            "byteOffset" : 198272
        }
    ],
    "buffers" : [
        {
            "byteLength" : 216388,
            "uri" : "data:application/octet-stream;base64,"
        }
    ]
}
