{
    "asset" : {
        "generator" : "Khronos glTF Blender I/O v1.5.17",
        "version" : "2.0"
    },
    "scene" : 0,
    "scenes" : [
        {
            "name" : "Scene",
            "nodes" : [
                0
            ]
        }
    ],
    "nodes" : [
        {
            "mesh" : 0,
            "name" : "Plane.001",
            "rotation" : [
                -0.160469651222229,
                -0.7476927638053894,
                -0.1352142095565796,
                0.6300175786018372
            ],
            "scale" : [
                1.8314204216003418,
                1.8314203023910522,
                1.8314204216003418
            ],
            "translation" : [
                0.10472428798675537,
                -0.00836801528930664,
                -0.03531721979379654
            ]
        }
    ],
    "materials" : [
        {
            "doubleSided" : true,
            "name" : "Material",
            "normalTexture" : {
                "index" : 0,
                "scale" : 0.10000000149011612
            },
            "pbrMetallicRoughness" : {
                "baseColorTexture" : {
                    "index" : 1
                },
                "metallicFactor" : 0,
                "metallicRoughnessTexture" : {
                    "index" : 2
                }
            }
        },
        {
            "doubleSided" : true,
            "name" : "Material.001",
            "normalTexture" : {
                "index" : 3,
                "scale" : 0.10000000149011612
            },
            "pbrMetallicRoughness" : {
                "baseColorTexture" : {
                    "index" : 4
                },
                "metallicFactor" : 0,
                "metallicRoughnessTexture" : {
                    "index" : 5
                }
            }
        },
        {
            "doubleSided" : true,
            "name" : "Material.002",
            "pbrMetallicRoughness" : {
                "baseColorTexture" : {
                    "index" : 6
                },
                "metallicFactor" : 0,
                "metallicRoughnessTexture" : {
                    "index" : 7
                }
            }
        }
    ],
    "meshes" : [
        {
            "name" : "Plane.001",
            "primitives" : [
                {
                    "attributes" : {
                        "POSITION" : 0,
                        "NORMAL" : 1,
                        "TEXCOORD_0" : 2
                    },
                    "indices" : 3,
                    "material" : 0
                },
                {
                    "attributes" : {
                        "POSITION" : 4,
                        "NORMAL" : 5,
                        "TEXCOORD_0" : 6
                    },
                    "indices" : 7,
                    "material" : 1
                },
                {
                    "attributes" : {
                        "POSITION" : 8,
                        "NORMAL" : 9,
                        "TEXCOORD_0" : 10
                    },
                    "indices" : 11,
                    "material" : 2
                }
            ]
        }
    ],
    "textures" : [
        {
            "sampler" : 0,
            "source" : 0
        },
        {
            "sampler" : 0,
            "source" : 1
        },
        {
            "sampler" : 0,
            "source" : 2
        },
        {
            "sampler" : 0,
            "source" : 0
        },
        {
            "sampler" : 0,
            "source" : 1
        },
        {
            "sampler" : 0,
            "source" : 2
        },
        {
            "sampler" : 0,
            "source" : 1
        },
        {
            "sampler" : 0,
            "source" : 2
        }
    ],
    "images" : [
        {
            "bufferView" : 4,
            "mimeType" : "image/png",
            "name" : "TexturesCom_Flower_RoseWhite_512_normal"
        },
        {
            "bufferView" : 5,
            "mimeType" : "image/png",
            "name" : "TexturesCom_Flower_RoseWhite_512_albedo"
        },
        {
            "bufferView" : 6,
            "mimeType" : "image/png",
            "name" : "TexturesCom_Flower_RoseWhite_512_roughness"
        }
    ],
    "accessors" : [
        {
            "bufferView" : 0,
            "componentType" : 5126,
            "count" : 14673,
            "max" : [
                0.5581469535827637,
                0.665567934513092,
                0.702460527420044
            ],
            "min" : [
                -0.5644272565841675,
                -2.325840950012207,
                -1.2580196857452393
            ],
            "type" : "VEC3"
        },
        {
            "bufferView" : 1,
            "componentType" : 5126,
            "count" : 14673,
            "type" : "VEC3"
        },
        {
            "bufferView" : 2,
            "componentType" : 5126,
            "count" : 14673,
            "type" : "VEC2"
        },
        {
            "bufferView" : 3,
            "componentType" : 5123,
            "count" : 76044,
            "type" : "SCALAR"
        },
        {
            "bufferView" : 7,
            "componentType" : 5126,
            "count" : 3772,
            "max" : [
                0.08463571965694427,
                0.38353294134140015,
                0.19953414797782898
            ],
            "min" : [
                -0.029391445219516754,
                0.06167474389076233,
                0.03353351354598999
            ],
            "type" : "VEC3"
        },
        {
            "bufferView" : 8,
            "componentType" : 5126,
            "count" : 3772,
            "type" : "VEC3"
        },
        {
            "bufferView" : 9,
            "componentType" : 5126,
            "count" : 3772,
            "type" : "VEC2"
        },
        {
            "bufferView" : 10,
            "componentType" : 5123,
            "count" : 20688,
            "type" : "SCALAR"
        },
        {
            "bufferView" : 11,
            "componentType" : 5126,
            "count" : 1770,
            "max" : [
                0.39458754658699036,
                0.27465730905532837,
                0.2836172878742218
            ],
            "min" : [
                -0.2582656741142273,
                -0.020943105220794678,
                -0.1732424795627594
            ],
            "type" : "VEC3"
        },
        {
            "bufferView" : 12,
            "componentType" : 5126,
            "count" : 1770,
            "type" : "VEC3"
        },
        {
            "bufferView" : 13,
            "componentType" : 5126,
            "count" : 1770,
            "type" : "VEC2"
        },
        {
            "bufferView" : 14,
            "componentType" : 5123,
            "count" : 8160,
            "type" : "SCALAR"
        }
    ],
    "bufferViews" : [
        {
            "buffer" : 0,
            "byteLength" : 176076,
            "byteOffset" : 0
        },
        {
            "buffer" : 0,
            "byteLength" : 176076,
            "byteOffset" : 176076
        },
        {
            "buffer" : 0,
            "byteLength" : 117384,
            "byteOffset" : 352152
        },
        {
            "buffer" : 0,
            "byteLength" : 152088,
            "byteOffset" : 469536
        },
        {
            "buffer" : 0,
            "byteLength" : 358242,
            "byteOffset" : 621624
        },
        {
            "buffer" : 0,
            "byteLength" : 294380,
            "byteOffset" : 979868
        },
        {
            "buffer" : 0,
            "byteLength" : 124796,
            "byteOffset" : 1274248
        },
        {
            "buffer" : 0,
            "byteLength" : 45264,
            "byteOffset" : 1399044
        },
        {
            "buffer" : 0,
            "byteLength" : 45264,
            "byteOffset" : 1444308
        },
        {
            "buffer" : 0,
            "byteLength" : 30176,
            "byteOffset" : 1489572
        },
        {
            "buffer" : 0,
            "byteLength" : 41376,
            "byteOffset" : 1519748
        },
        {
            "buffer" : 0,
            "byteLength" : 21240,
            "byteOffset" : 1561124
        },
        {
            "buffer" : 0,
            "byteLength" : 21240,
            "byteOffset" : 1582364
        },
        {
            "buffer" : 0,
            "byteLength" : 14160,
            "byteOffset" : 1603604
        },
        {
            "buffer" : 0,
            "byteLength" : 16320,
            "byteOffset" : 1617764
        }
    ],
    "samplers" : [
        {
            "magFilter" : 9729,
            "minFilter" : 9987
        }
    ],
    "buffers" : [
        {
            "byteLength" : 1634084,
            "uri" : "data:application/octet-stream;base64,"
        }
    ]
}
